<svg width="18" height="13" viewBox="0 0 18 13" fill="none" xmlns="http://www.w3.org/2000/svg">
<path d="M16 0H2C1.46957 0 0.960859 0.210714 0.585786 0.585786C0.210714 0.960859 0 1.46957 0 2V11C0 11.5304 0.210714 12.0391 0.585786 12.4142C0.960859 12.7893 1.46957 13 2 13H16C16.5304 13 17.0391 12.7893 17.4142 12.4142C17.7893 12.0391 18 11.5304 18 11V2C18 1.46957 17.7893 0.960859 17.4142 0.585786C17.0391 0.210714 16.5304 0 16 0ZM6.316 7.316L7.918 8.716C8.223 8.982 8.609 9.114 9 9.114C9.391 9.114 9.777 8.981 10.082 8.716L11.684 7.316L11.647 7.353L15.293 10.999H2.707L6.353 7.353L6.316 7.316ZM2 10.293V3.54L5.602 6.691L2 10.293ZM12.398 6.691L16 3.54V10.29L12.398 6.691ZM16 2V2.21L9.424 7.964C9.30356 8.06006 9.15406 8.11238 9 8.11238C8.84594 8.11238 8.69644 8.06006 8.576 7.964L2 2.21V2H16Z" fill="white"/>
</svg>
